<svg width="48" height="48" viewBox="0 0 48 48" fill="none" xmlns="http://www.w3.org/2000/svg">
<path d="M3 18.2C3 12.8795 3 10.2193 4.03544 8.18709C4.94624 6.39955 6.39955 4.94624 8.18709 4.03544C10.2193 3 12.8795 3 18.2 3H29.8C35.1205 3 37.7807 3 39.8129 4.03544C41.6004 4.94624 43.0538 6.39955 43.9646 8.18709C45 10.2193 45 12.8795 45 18.2V29.8C45 35.1205 45 37.7807 43.9646 39.8129C43.0538 41.6004 41.6004 43.0538 39.8129 43.9646C37.7807 45 35.1205 45 29.8 45H18.2C12.8795 45 10.2193 45 8.18709 43.9646C6.39955 43.0538 4.94624 41.6004 4.03544 39.8129C3 37.7807 3 35.1205 3 29.8V18.2Z" fill="#202124"/>
<path d="M23.3527 29.3944H16.8443L15.5201 33.6134C15.4833 33.7702 15.339 33.8812 15.182 33.8735H11.8855C11.6975 33.8735 11.6318 33.7676 11.6883 33.5556L17.3232 16.9107C17.3796 16.7374 17.436 16.5399 17.4924 16.3183C17.5661 15.9328 17.6038 15.5409 17.6051 15.148C17.5889 15.0319 17.6909 14.9294 17.8023 14.9457H22.282C22.4133 14.9457 22.4884 14.9939 22.5075 15.0902L28.9032 33.5845C28.9596 33.7773 28.9032 33.8737 28.7341 33.8735H25.0714C24.9429 33.8881 24.8202 33.8 24.7896 33.6712L23.3527 29.3944ZM17.8586 25.7533H22.3102C21.5789 23.2541 20.7534 20.7876 20.0845 18.2689C19.3627 20.7919 18.5752 23.3047 17.8586 25.7533Z" fill="white"/>
<path d="M32.7065 18.0087C32.4191 18.0206 32.1326 17.9701 31.8655 17.8605C31.5985 17.751 31.357 17.5848 31.1569 17.373C30.9573 17.152 30.8023 16.8927 30.7007 16.61C30.5992 16.3273 30.5531 16.0268 30.5651 15.7258C30.5549 15.4278 30.6061 15.1309 30.7153 14.8546C30.8245 14.5782 30.9894 14.3286 31.1991 14.122C31.4067 13.9176 31.6519 13.7574 31.9203 13.6508C32.1887 13.5441 32.4751 13.4931 32.7628 13.5007C33.439 13.5007 33.9697 13.7078 34.3547 14.122C34.5491 14.3373 34.7001 14.5897 34.7992 14.8649C34.8983 15.1401 34.9435 15.4327 34.9323 15.7258C34.9441 16.028 34.8965 16.3295 34.7924 16.6125C34.6884 16.8954 34.5299 17.1541 34.3265 17.373C34.1139 17.5879 33.8602 17.7554 33.5814 17.8648C33.3026 17.9742 33.0047 18.0232 32.7065 18.0087ZM30.7624 33.5844V19.7714C30.7624 19.5981 30.8372 19.5114 30.9878 19.5114H34.4533C34.6035 19.5114 34.6786 19.5981 34.6787 19.7714V33.5844C34.6787 33.7772 34.6036 33.8736 34.4533 33.8734H31.016C30.847 33.8734 30.7624 33.7771 30.7624 33.5844Z" fill="white"/>
</svg>
