<svg width="48" height="48" viewBox="0 0 48 48" fill="none" xmlns="http://www.w3.org/2000/svg">
<path d="M3 18.2C3 12.8795 3 10.2193 4.03544 8.18709C4.94624 6.39955 6.39955 4.94624 8.18709 4.03544C10.2193 3 12.8795 3 18.2 3H29.8C35.1205 3 37.7807 3 39.8129 4.03544C41.6004 4.94624 43.0538 6.39955 43.9646 8.18709C45 10.2193 45 12.8795 45 18.2V29.8C45 35.1205 45 37.7807 43.9646 39.8129C43.0538 41.6004 41.6004 43.0538 39.8129 43.9646C37.7807 45 35.1205 45 29.8 45H18.2C12.8795 45 10.2193 45 8.18709 43.9646C6.39955 43.0538 4.94624 41.6004 4.03544 39.8129C3 37.7807 3 35.1205 3 29.8V18.2Z" fill="#202124"/>
<path d="M24.05 24C24.05 21.8185 25.8185 20.05 28 20.05C30.1815 20.05 31.95 21.8185 31.95 24C31.95 26.1815 30.1815 27.95 28 27.95C25.8185 27.95 24.05 26.1815 24.05 24Z" fill="white" stroke="#202124" stroke-width="0.1"/>
<path d="M16.05 32C16.05 29.8185 17.8185 28.05 20 28.05H23.95V32C23.95 34.1815 22.1815 35.95 20 35.95C17.8185 35.95 16.05 34.1815 16.05 32Z" fill="white" stroke="#202124" stroke-width="0.1"/>
<path d="M28 19.95H24.05V12.05H28C30.1815 12.05 31.95 13.8185 31.95 16C31.95 18.1815 30.1815 19.95 28 19.95Z" fill="white" stroke="#202124" stroke-width="0.1"/>
<path d="M20 19.95C17.8185 19.95 16.05 18.1815 16.05 16C16.05 13.8185 17.8185 12.05 20 12.05H23.95V19.95H20Z" fill="white" stroke="#202124" stroke-width="0.1"/>
<path d="M20 27.95C17.8185 27.95 16.05 26.1815 16.05 24C16.05 21.8185 17.8185 20.05 20 20.05H23.95V27.95H20Z" fill="white" stroke="#202124" stroke-width="0.1"/>
</svg>
