<svg width="48" height="48" viewBox="0 0 48 48" fill="none" xmlns="http://www.w3.org/2000/svg">
<path d="M3 18.2C3 12.8795 3 10.2193 4.03544 8.18709C4.94624 6.39955 6.39955 4.94624 8.18709 4.03544C10.2193 3 12.8795 3 18.2 3H29.8C35.1205 3 37.7807 3 39.8129 4.03544C41.6004 4.94624 43.0538 6.39955 43.9646 8.18709C45 10.2193 45 12.8795 45 18.2V29.8C45 35.1205 45 37.7807 43.9646 39.8129C43.0538 41.6004 41.6004 43.0538 39.8129 43.9646C37.7807 45 35.1205 45 29.8 45H18.2C12.8795 45 10.2193 45 8.18709 43.9646C6.39955 43.0538 4.94624 41.6004 4.03544 39.8129C3 37.7807 3 35.1205 3 29.8V18.2Z" fill="#202124"/>
<path d="M30.2905 10H26.2146L29.8331 15.6079L22.1831 10H18.1072L21.7258 17.3483L14.0759 10H10L13.5589 19.4866L10 37.9999H14.0759L21.7258 18.1494L18.1072 37.9999H22.1831L29.8331 16.4098L26.2146 37.9999H30.2905L38 14.2835L30.2905 10Z" fill="white"/>
</svg>
