<svg width="48" height="48" viewBox="0 0 48 48" fill="none" xmlns="http://www.w3.org/2000/svg">
<path d="M3 18.2C3 12.8795 3 10.2193 4.03544 8.18709C4.94624 6.39955 6.39955 4.94624 8.18709 4.03544C10.2193 3 12.8795 3 18.2 3H29.8C35.1205 3 37.7807 3 39.8129 4.03544C41.6004 4.94624 43.0538 6.39955 43.9646 8.18709C45 10.2193 45 12.8795 45 18.2V29.8C45 35.1205 45 37.7807 43.9646 39.8129C43.0538 41.6004 41.6004 43.0538 39.8129 43.9646C37.7807 45 35.1205 45 29.8 45H18.2C12.8795 45 10.2193 45 8.18709 43.9646C6.39955 43.0538 4.94624 41.6004 4.03544 39.8129C3 37.7807 3 35.1205 3 29.8V18.2Z" fill="#202124"/>
<g clip-path="url(#clip0_624_153)">
<path d="M18.7856 30.8893C18.1046 30.8893 17.5494 31.4195 17.5494 32.0775C17.5494 32.5248 17.8071 32.908 18.1906 33.1125L22.97 35.6739C23.3491 35.8876 23.777 35.9998 24.2122 35.9997C24.5032 35.9997 24.7809 35.9487 25.0387 35.8592L26.6714 35.4057V30.8831C26.6781 30.8893 18.7918 30.8893 18.7853 30.8893H18.7856Z" fill="white"/>
<path d="M24.9337 12.0961C24.708 12.0317 24.4742 11.9994 24.2395 12.0004C23.8495 12.0004 23.4595 12.0771 23.109 12.2559C23.0365 12.2879 15.3352 16.4718 15.3352 16.4718C15.2295 16.523 15.1302 16.5868 15.0377 16.6508C15.0247 16.657 15.018 16.6635 15.0047 16.67C14.9452 16.7145 14.8922 16.7593 14.833 16.804C14.8065 16.8233 14.78 16.849 14.7602 16.868C14.7272 16.8997 14.694 16.9317 14.6677 16.9637C14.5752 17.0595 14.4165 17.2637 14.4165 17.2637C14.1441 17.6509 13.9986 18.1131 14 18.5865V29.7011C14 30.3594 14.5552 30.8896 15.2362 30.8896C15.408 30.8896 15.5667 30.8576 15.7122 30.7936L17.9134 29.5991C18.3099 29.4077 18.6274 29.0817 18.7926 28.6792C18.8321 28.5962 18.8651 28.4942 18.8851 28.3917C18.8916 28.3662 18.8984 28.3342 18.8984 28.3087C18.8984 28.2962 18.9049 28.2769 18.9049 28.2642C18.9116 28.2192 18.9181 28.1682 18.9181 28.1237C18.9181 28.0852 18.9249 28.0532 18.9249 28.0149V22.0996V20.2534C18.9249 19.7359 19.1561 19.2697 19.5199 18.9439C19.5199 18.9439 19.3479 19.0972 19.5199 18.9439C19.6916 18.7907 19.9163 18.6565 20.1808 18.5672C20.4451 18.4712 26.6987 16.2868 26.6987 16.2868V12.6009L24.9337 12.0961Z" fill="white"/>
<path d="M31.974 14.0878L25.0397 12.1271C26.0444 12.5041 26.6721 13.3535 26.6721 14.3885C26.6721 14.3885 26.6659 33.188 26.6721 33.6415C26.6789 34.6634 26.0046 35.5387 25.0397 35.8644C25.2512 35.8069 31.974 33.9352 31.974 33.9352C32.972 33.6287 33.6927 32.7342 33.6927 31.6678V16.3552C33.6992 15.2952 32.972 14.3943 31.974 14.0878V14.0878Z" fill="white"/>
</g>
<defs>
<clipPath id="clip0_624_153">
<rect width="19.6992" height="24" fill="white" transform="translate(14 12)"/>
</clipPath>
</defs>
</svg>
