<svg width="48" height="48" viewBox="0 0 48 48" fill="none" xmlns="http://www.w3.org/2000/svg">
<path d="M3 18.2C3 12.8795 3 10.2193 4.03544 8.18709C4.94624 6.39955 6.39955 4.94624 8.18709 4.03544C10.2193 3 12.8795 3 18.2 3H29.8C35.1205 3 37.7807 3 39.8129 4.03544C41.6004 4.94624 43.0538 6.39955 43.9646 8.18709C45 10.2193 45 12.8795 45 18.2V29.8C45 35.1205 45 37.7807 43.9646 39.8129C43.0538 41.6004 41.6004 43.0538 39.8129 43.9646C37.7807 45 35.1205 45 29.8 45H18.2C12.8795 45 10.2193 45 8.18709 43.9646C6.39955 43.0538 4.94624 41.6004 4.03544 39.8129C3 37.7807 3 35.1205 3 29.8V18.2Z" fill="#202124"/>
<path fill-rule="evenodd" clip-rule="evenodd" d="M34 24.405C34 24.108 33.775 23.9367 33.4988 24.0218L14.5012 29.8973C14.2245 29.9829 14 30.2934 14 30.5899V36.5949C14 36.8918 14.2245 37.0636 14.5012 36.978L33.4988 31.1031C33.775 31.0174 34 30.7069 34 30.4099V24.405Z" fill="white"/>
<path fill-rule="evenodd" clip-rule="evenodd" d="M14 24.4093C14 24.7062 14.2244 25.0167 14.5011 25.1023L33.4989 30.978C33.7756 31.0636 34 30.8918 34 30.5954V24.5902C34 24.2938 33.7756 23.9833 33.4989 23.8977L14.5011 18.0221C14.2244 17.9364 14 18.1077 14 18.4046V24.4093V24.4093Z" fill="white"/>
<path fill-rule="evenodd" clip-rule="evenodd" d="M34 11.4051C34 11.1082 33.775 10.9364 33.4988 11.022L14.5012 16.8969C14.2245 16.9826 14 17.2931 14 17.5901V23.595C14 23.892 14.2245 24.0633 14.5012 23.9782L33.4988 18.1027C33.775 18.0171 34 17.7066 34 17.4101V11.4051Z" fill="white"/>
</svg>
