<svg width="64" height="64" viewBox="0 0 64 64" fill="none" xmlns="http://www.w3.org/2000/svg">
<rect width="64" height="64" rx="16" fill="#5D5FEF" fill-opacity="0.3"/>
<path fill-rule="evenodd" clip-rule="evenodd" d="M34.6667 18.3636C34.6667 17.6105 34.0697 17 33.3333 17H24C21.7909 17 20 18.8316 20 21.0909V42.9091C20 45.1684 21.7909 47 24 47H40C42.2091 47 44 45.1684 44 42.9091V27.9091C44 27.156 43.403 26.5455 42.6667 26.5455H38.6667C36.4575 26.5455 34.6667 24.7139 34.6667 22.4545V18.3636ZM26.6667 33.3636C26.6667 32.6105 27.2636 32 28 32H36C36.7364 32 37.3333 32.6105 37.3333 33.3636C37.3333 34.1168 36.7364 34.7273 36 34.7273H28C27.2636 34.7273 26.6667 34.1168 26.6667 33.3636ZM26.6667 38.8182C26.6667 38.0651 27.2636 37.4545 28 37.4545H32C32.7364 37.4545 33.3333 38.0651 33.3333 38.8182C33.3333 39.5713 32.7364 40.1818 32 40.1818H28C27.2636 40.1818 26.6667 39.5713 26.6667 38.8182Z" fill="#5D5FEF"/>
<path d="M38.4038 17.0741C37.6723 16.7674 37 17.4621 37 18.2553V22.5638C37 23.357 37.643 24 38.4362 24H42.7447C43.5379 24 44.2326 23.3277 43.9259 22.5962C43.7931 22.2796 43.6023 21.9853 43.3396 21.7225L39.2775 17.6604C39.0147 17.3977 38.7204 17.2069 38.4038 17.0741Z" fill="#5D5FEF"/>
</svg>
