<svg width="64" height="64" viewBox="0 0 64 64" fill="none" xmlns="http://www.w3.org/2000/svg">
<rect width="64" height="64" rx="16" fill="#ECECEC"/>
<path fill-rule="evenodd" clip-rule="evenodd" d="M37.82 45.38C37.865 45.62 37.7299 45.875 37.5049 45.965C35.8099 46.64 33.95 47 32.03 47C28.715 47 25.6549 45.935 23.1799 44.105C22.9699 43.955 22.91 43.6549 23.045 43.4299C23.87 41.9599 27.0949 37.235 34.2199 34.595C34.4899 34.49 34.7899 34.6249 34.8799 34.8949C36.6649 39.6799 37.505 43.73 37.82 45.38Z" fill="#ADADAD"/>
<path fill-rule="evenodd" clip-rule="evenodd" d="M46.73 34.8351C46.04 38.5251 43.97 41.7351 41.075 43.9251C40.76 44.1651 40.31 43.985 40.235 43.61C39.92 41.99 39.1549 38.495 37.6849 34.34C37.5799 34.025 37.79 33.68 38.12 33.635C41.855 33.185 45.125 33.905 46.355 34.235C46.61 34.325 46.775 34.5801 46.73 34.8351Z" fill="#ADADAD"/>
<path fill-rule="evenodd" clip-rule="evenodd" d="M46.3851 31.73C44.8551 31.46 40.9551 30.89 36.9651 31.325C36.7251 31.355 36.5151 31.22 36.4101 30.995C36.3501 30.86 36.3051 30.725 36.2451 30.59C36.0051 30.035 35.7501 29.465 35.4951 28.91C35.3601 28.64 35.4951 28.31 35.7651 28.19C39.9651 26.375 42.305 24.035 43.22 22.985C43.445 22.73 43.8351 22.745 44.0451 23.015C45.7701 25.31 46.8351 28.115 47.0001 31.145C47.0151 31.52 46.7151 31.79 46.3851 31.73Z" fill="#ADADAD"/>
<path fill-rule="evenodd" clip-rule="evenodd" d="M41.6599 21.185C40.8799 22.13 38.6899 24.38 34.5349 26.03C34.2949 26.135 34.0099 26.03 33.8749 25.79C31.9549 22.31 29.9149 19.385 28.9699 18.065C28.7449 17.75 28.925 17.3 29.3 17.24C30.17 17.09 31.0849 17.015 32.0149 17.015C35.6449 17.015 38.99 18.305 41.585 20.465C41.81 20.63 41.8399 20.96 41.6599 21.185Z" fill="#ADADAD"/>
<path fill-rule="evenodd" clip-rule="evenodd" d="M30.53 27.26C24.845 28.685 19.82 28.88 17.99 28.91C17.645 28.91 17.39 28.58 17.48 28.25C18.56 24.05 21.44 20.54 25.235 18.605C25.46 18.485 25.745 18.56 25.895 18.77C26.675 19.85 28.79 22.895 30.86 26.48C31.025 26.78 30.875 27.17 30.53 27.26Z" fill="#ADADAD"/>
<path fill-rule="evenodd" clip-rule="evenodd" d="M33.38 31.3999C33.515 31.6849 33.35 32.0299 33.05 32.1349C26.405 34.2799 22.43 39.6049 21.23 41.4349C21.035 41.7349 20.615 41.7499 20.39 41.4799C18.29 38.8999 17.015 35.9449 17.015 32.3599V32.0899C17.015 31.7899 17.255 31.5499 17.555 31.5649C19.445 31.6399 25.61 31.3849 32.015 29.5399C32.255 29.4649 32.525 29.5849 32.63 29.8099C32.885 30.3349 33.14 30.8599 33.38 31.3999Z" fill="#ADADAD"/>
</svg>
