<svg width="64" height="64" viewBox="0 0 64 64" fill="none" xmlns="http://www.w3.org/2000/svg">
<rect width="64" height="64" rx="16" fill="#1275B1" fill-opacity="0.3"/>
<path fill-rule="evenodd" clip-rule="evenodd" d="M25.3617 22.8163C25.3617 24.3818 24.1833 25.6345 22.2911 25.6345H22.2564C20.4346 25.6345 19.2568 24.3818 19.2568 22.8163C19.2568 21.2176 20.4705 20 22.3269 20C24.1833 20 25.3265 21.2176 25.3617 22.8163ZM25.0042 27.86V44.1646H19.5776V27.86H25.0042ZM44.5743 44.1646L44.5745 34.816C44.5745 29.8079 41.8974 27.4771 38.3265 27.4771C35.4453 27.4771 34.1554 29.0596 33.4352 30.1698V27.8604H28.0079C28.0795 29.3903 28.0079 44.165 28.0079 44.165H33.4352V35.0592C33.4352 34.5719 33.4704 34.0858 33.6139 33.7369C34.0061 32.7634 34.899 31.7555 36.3982 31.7555C38.3627 31.7555 39.1479 33.2506 39.1479 35.4416V44.1646H44.5743Z" fill="#1275B1"/>
</svg>
