<svg width="64" height="64" viewBox="0 0 64 64" fill="none" xmlns="http://www.w3.org/2000/svg">
<rect width="64" height="64" rx="16" fill="#EA3349" fill-opacity="0.3"/>
<path d="M23.2336 25.5703C23.2286 24.8092 23.3769 24.0549 23.6696 23.3523C23.9529 22.6708 24.3715 22.0538 24.9 21.5387C25.4281 21.0226 26.0476 20.6093 26.7268 20.3199C27.4253 20.0282 28.1747 19.8779 28.9316 19.8779C29.6886 19.8779 30.438 20.0282 31.1364 20.3199C31.8127 20.6072 32.4282 21.0206 32.95 21.5379C33.4816 22.0657 33.9027 22.6939 34.1889 23.3861C34.4751 24.0783 34.6205 24.8205 34.6168 25.5695C34.62 26.3226 34.4695 27.0683 34.1744 27.7611C33.8867 28.4427 33.4711 29.0628 32.95 29.5879C32.4311 30.112 31.8151 30.53 31.1364 30.8187C30.438 31.1105 29.6886 31.2607 28.9316 31.2607C28.1747 31.2607 27.4253 31.1105 26.7268 30.8187C26.0453 30.5282 25.4253 30.1105 24.9 29.5879C24.3698 29.062 23.9494 28.4359 23.6634 27.7461C23.3773 27.0562 23.2312 26.3163 23.2336 25.5695V25.5703ZM26.8736 25.5703C26.8736 26.1429 27.0703 26.6229 27.4636 27.0103C27.857 27.3978 28.344 27.5922 28.9248 27.5935C29.4974 27.5935 29.9802 27.3991 30.3732 27.0103C30.7663 26.6215 30.9628 26.1415 30.9628 25.5703C30.9628 24.9975 30.7663 24.5146 30.3732 24.1215C29.9802 23.7285 29.4975 23.5319 28.9252 23.5319C28.3442 23.5319 27.8571 23.7285 27.464 24.1215C27.071 24.5146 26.8743 24.9975 26.874 25.5703H26.8736Z" fill="#EA3349"/>
<path d="M23.2335 38.4296C23.2285 37.6686 23.3768 36.9144 23.6695 36.212C23.953 35.531 24.3715 34.9146 24.8999 34.4C25.4279 33.8841 26.0474 33.471 26.7267 33.182C27.4252 32.8902 28.1746 32.74 28.9315 32.74C29.6884 32.74 30.4379 32.8902 31.1363 33.182C31.8127 33.4692 32.4282 33.8825 32.9499 34.4C33.4814 34.9277 33.9025 35.5559 34.1887 36.248C34.4748 36.9401 34.6203 37.6823 34.6167 38.4312C34.6199 39.1843 34.4693 39.9302 34.1743 40.6232C33.8866 41.3047 33.471 41.9249 32.9499 42.45C32.4308 42.9736 31.8148 43.3914 31.1363 43.68C30.4379 43.9718 29.6884 44.122 28.9315 44.122C28.1746 44.122 27.4252 43.9718 26.7267 43.68C26.0452 43.3893 25.4253 42.9716 24.8999 42.4492C24.3696 41.9232 23.9492 41.2971 23.6632 40.6071C23.3771 39.9172 23.231 39.1773 23.2335 38.4304V38.4296ZM26.8735 38.4296C26.8735 39.0024 27.0702 39.4832 27.4635 39.872C27.8568 40.2608 28.3439 40.4552 28.9247 40.4552C29.4972 40.4552 29.98 40.2608 30.3731 39.872C30.7662 39.4832 30.9627 39.0024 30.9627 38.4296C30.9627 37.8571 30.7662 37.3743 30.3731 36.9812C29.98 36.5881 29.4972 36.3916 28.9247 36.3916C28.3436 36.3916 27.8566 36.5881 27.4635 36.9812C27.0704 37.3743 26.8739 37.8571 26.8739 38.4296H26.8735Z" fill="#EA3349"/>
<path d="M18.5325 39.872C18.1394 40.2608 17.6565 40.4552 17.0837 40.4552C16.5026 40.4552 16.0155 40.2608 15.6225 39.872C15.2294 39.4832 15.0329 39.0032 15.0329 38.432C15.0329 37.8592 15.2294 37.3763 15.6225 36.9832C16.0155 36.5901 16.5026 36.3936 17.0837 36.3936C17.6559 36.3936 18.1389 36.5901 18.5325 36.9832C18.6623 37.1119 18.7742 37.2575 18.8653 37.416H22.6889C22.6166 37.0037 22.4972 36.601 22.3329 36.216C22.0474 35.5365 21.6316 34.9195 21.1089 34.4C20.587 33.8826 19.9714 33.4692 19.2949 33.182C18.5964 32.8902 17.847 32.74 17.0901 32.74C16.3331 32.74 15.5837 32.8902 14.8853 33.182C14.2062 33.4712 13.5868 33.8842 13.0589 34.4C12.5301 34.9152 12.1114 35.5323 11.8281 36.214C11.5356 36.9165 11.3874 37.6707 11.3925 38.4316C11.3897 39.1785 11.5356 39.9184 11.8217 40.6083C12.1078 41.2982 12.5284 41.9243 13.0589 42.45C13.5841 42.9722 14.2039 43.3897 14.8853 43.68C15.5837 43.9718 16.3331 44.122 17.0901 44.122C17.847 44.122 18.5964 43.9718 19.2949 43.68C19.9737 43.3914 20.5899 42.9734 21.1089 42.4492C21.6297 41.9241 22.0452 41.3041 22.3329 40.6228C22.4942 40.2451 22.6126 39.8505 22.6857 39.4464H18.8637C18.7728 39.6024 18.6614 39.7456 18.5325 39.872V39.872Z" fill="#EA3349"/>
<path d="M22.3333 23.3524C22.0472 22.6739 21.6313 22.0578 21.1089 21.5388C20.5871 21.0212 19.9716 20.6076 19.2953 20.32C18.5968 20.0282 17.8473 19.8779 17.0903 19.8779C16.3333 19.8779 15.5838 20.0282 14.8853 20.32C14.2062 20.6092 13.5868 21.0222 13.0589 21.538C12.5302 22.0531 12.1115 22.6701 11.8281 23.3516C11.5356 24.0543 11.3875 24.8086 11.3925 25.5696V31.2616H15.0325V30.88C16.4081 31.4089 17.9347 31.3873 19.2949 30.8196C19.9735 30.5309 20.5895 30.1129 21.1085 29.5888C21.6294 29.0636 22.045 28.4435 22.3329 27.762C22.6271 27.069 22.7768 26.3233 22.7729 25.5704C22.7787 24.8089 22.6291 24.0542 22.3333 23.3524V23.3524ZM18.5333 27.0124C18.1402 27.4012 17.6573 27.5956 17.0845 27.5956C16.5034 27.5956 16.0163 27.4012 15.6233 27.0124C15.2302 26.6236 15.0337 26.1436 15.0337 25.5724C15.0337 24.9996 15.2302 24.5167 15.6233 24.1236C16.0163 23.7306 16.5034 23.534 17.0845 23.534C17.6573 23.534 18.1402 23.7306 18.5333 24.1236C18.9263 24.5167 19.1229 24.9996 19.1229 25.5724C19.1223 26.1436 18.9255 26.6236 18.5325 27.0124H18.5333Z" fill="#EA3349"/>
<path d="M46.0156 23.3523C45.7298 22.6737 45.314 22.0576 44.7916 21.5387C44.2697 21.0211 43.6541 20.6075 42.9776 20.3199C42.2791 20.0282 41.5297 19.8779 40.7728 19.8779C40.0158 19.8779 39.2664 20.0282 38.568 20.3199C37.8888 20.609 37.2695 21.0221 36.7416 21.5379C36.2129 22.053 35.7942 22.67 35.5108 23.3515C35.2184 24.0542 35.0702 24.8085 35.0752 25.5695V31.2615H38.7152V30.8799C40.0907 31.4088 41.6172 31.3872 42.9772 30.8195C43.656 30.5308 44.2721 30.1128 44.7912 29.5887C45.3121 29.0636 45.7276 28.4434 46.0152 27.7619C46.3102 27.0691 46.4607 26.3233 46.4576 25.5703C46.4626 24.8086 46.3122 24.0539 46.0156 23.3523V23.3523ZM42.2156 27.0123C41.8228 27.4011 41.34 27.5955 40.7672 27.5955C40.1861 27.5955 39.699 27.4011 39.306 27.0123C38.9129 26.6235 38.7164 26.1435 38.7164 25.5723C38.7164 24.9995 38.9129 24.5166 39.306 24.1235C39.699 23.7305 40.1861 23.5339 40.7672 23.5339C41.3397 23.5339 41.8225 23.7305 42.2156 24.1235C42.6086 24.5166 42.8053 24.9995 42.8056 25.5723C42.805 26.1435 42.6081 26.6235 42.2148 27.0123H42.2156Z" fill="#EA3349"/>
<path d="M38.7092 33.12V32.7368H35.0692L35.0724 38.2436C35.0724 38.3048 35.0696 38.366 35.0696 38.428H35.0728L35.076 44.1197H38.71V38.4296H38.714C38.714 37.8571 38.9107 37.3743 39.304 36.9812C39.6973 36.5882 40.1851 36.3916 40.7672 36.3916V32.7384C40.0632 32.734 39.3648 32.8635 38.7092 33.12V33.12Z" fill="#EA3349"/>
<path d="M52.6076 38.4236C52.6104 37.676 52.4646 36.9353 52.1786 36.2445C51.8926 35.5538 51.4721 34.9268 50.9416 34.4C50.4197 33.8827 49.8041 33.4695 49.1276 33.1824C47.768 32.6136 46.2413 32.5912 44.8656 33.12V32.738H41.2256L41.232 38.1588C41.228 38.2463 41.226 38.3344 41.226 38.4232L41.2324 44.108H44.8668V38.428C44.8668 37.856 45.0632 37.3734 45.456 36.98C45.8488 36.5867 46.336 36.39 46.9176 36.39C47.4898 36.39 47.9727 36.5867 48.366 36.98C48.7593 37.3734 48.9558 37.856 48.9556 38.428H48.9684L48.9748 44.108H52.6088V38.4236H52.6076Z" fill="#EA3349"/>
</svg>
