<svg width="64" height="64" viewBox="0 0 64 64" fill="none" xmlns="http://www.w3.org/2000/svg">
<rect width="64" height="64" rx="16" fill="#ECECEC"/>
<path fill-rule="evenodd" clip-rule="evenodd" d="M34.6427 16.4C35.2908 16.4 35.8393 15.85 35.8393 15.2C35.8393 14.55 35.2908 14 34.6427 14H29.2576C28.6094 14 28.0609 14.55 28.0609 15.2C28.0609 15.85 28.6094 16.4 29.2576 16.4H29.5568C30.205 16.4 30.7036 16.9 30.7036 17.55V18.5C30.7036 18.6 30.6538 18.65 30.554 18.65C27.9114 18.9 25.518 19.95 23.5734 21.6C23.4737 21.7 23.2743 21.7 23.1745 21.6L22.6759 21C22.2272 20.55 22.2272 19.8 22.6759 19.35L22.9252 19.1C23.374 18.65 23.374 17.85 22.9252 17.4C22.4765 16.95 21.6787 16.95 21.2299 17.4L17.3906 21.25C16.9419 21.7 16.9419 22.5 17.3906 22.95C17.8394 23.4 18.6371 23.4 19.0858 22.95L19.3352 22.7C19.784 22.25 20.5319 22.25 20.9806 22.7L21.5291 23.25C21.6288 23.35 21.6288 23.55 21.5291 23.65C19.9335 25.6 18.8864 28 18.5872 30.65C18.5872 30.75 18.4875 30.8 18.4376 30.8H17.5401C16.8919 30.8 16.3933 30.3 16.3933 29.65V29.35C16.3933 28.7 15.8449 28.15 15.1967 28.15C14.5485 28.15 14 28.65 14 29.3V34.7C14 35.35 14.5485 35.9 15.1967 35.9C15.8449 35.9 16.3933 35.35 16.3933 34.7V34.4C16.3933 33.75 16.8919 33.25 17.5401 33.25H18.4875C18.5872 33.25 18.6371 33.3 18.6371 33.4C18.8865 36.05 19.9335 38.45 21.5789 40.4C21.6786 40.5 21.6786 40.7 21.5789 40.8L20.9806 41.3C20.5319 41.75 19.784 41.75 19.3352 41.3L19.0858 41.05C18.6371 40.6 17.8394 40.6 17.3906 41.05C16.9419 41.5 16.9419 42.3 17.3906 42.75L21.2299 46.6C21.6787 47.05 22.4765 47.05 22.9252 46.6C23.374 46.15 23.374 45.35 22.9252 44.9L22.6759 44.65C22.2272 44.2 22.2272 43.45 22.6759 43L23.2244 42.45C23.3241 42.35 23.5236 42.35 23.6233 42.45C25.5679 44.05 27.9612 45.1 30.6039 45.4C30.7036 45.4 30.7535 45.5 30.7535 45.55V46.45C30.7535 47.1 30.2548 47.6 29.6066 47.6H29.3075C28.6593 47.6 28.1108 48.15 28.1108 48.8C28.1108 49.45 28.6593 50 29.3075 50H34.6925C35.3407 50 35.8892 49.45 35.8892 48.8C35.8892 48.15 35.3407 47.6 34.6925 47.6H34.3934C33.7452 47.6 33.2465 47.1 33.2465 46.45V45.5C33.2465 45.4 33.2964 45.35 33.3961 45.35C36.0388 45.1 38.4322 44.05 40.3768 42.4C40.4765 42.3 40.6759 42.3 40.7756 42.4L41.3241 42.95C41.7729 43.4 41.7729 44.15 41.3241 44.6L41.0748 44.85C40.626 45.3 40.626 46.1 41.0748 46.55C41.5235 47 42.3214 47 42.7701 46.55L46.6094 42.7C47.0582 42.25 47.0582 41.45 46.6094 41C46.1607 40.55 45.3629 40.55 44.9142 41L44.6648 41.25C44.216 41.7 43.4682 41.7 43.0194 41.25L42.4709 40.7C42.3712 40.6 42.3712 40.4 42.4709 40.3C44.0665 38.35 45.1136 35.95 45.4128 33.3C45.4128 33.2 45.5125 33.15 45.5624 33.15H46.4599C47.1081 33.15 47.6067 33.65 47.6067 34.3V34.6C47.6067 35.25 48.1551 35.8 48.8033 35.8C49.4515 35.8 50 35.25 50 34.6V29.3C50 28.65 49.4515 28.1 48.8033 28.1C48.1551 28.1 47.6067 28.65 47.6067 29.3V29.6C47.6067 30.25 47.1081 30.75 46.4599 30.75H45.4128C45.313 30.75 45.2631 30.7 45.2631 30.6C45.0138 27.95 43.9668 25.55 42.3214 23.6C42.2216 23.5 42.2216 23.3 42.3214 23.2L42.8698 22.65C43.3186 22.2 44.0665 22.2 44.5153 22.65L44.7645 22.9C45.2133 23.35 46.0111 23.35 46.4599 22.9C46.9086 22.45 46.9086 21.65 46.4599 21.2L42.6205 17.35C42.1717 16.9 41.374 16.9 40.9252 17.35C40.4765 17.8 40.4765 18.6 40.9252 19.05L41.1745 19.3C41.6232 19.75 41.6232 20.5 41.1745 20.95L40.626 21.5C40.5263 21.6 40.3269 21.6 40.2271 21.5C38.2826 19.9 35.8892 18.85 33.2465 18.55C33.1468 18.55 33.097 18.45 33.097 18.4V17.5C33.097 16.85 33.5956 16.35 34.2437 16.35H34.6427V16.4Z" fill="#ADADAD"/>
</svg>
